<?xml version="1.0" standalone="no"?>
<!DOCTYPE svg PUBLIC "-//W3C//DTD SVG 20010904//EN"
 "http://www.w3.org/TR/2001/REC-SVG-20010904/DTD/svg10.dtd">
<svg version="1.0" xmlns="http://www.w3.org/2000/svg"
 width="70.000000pt" height="70.000000pt" viewBox="0 0 70.000000 70.000000"
 preserveAspectRatio="xMidYMid meet">
<metadata>
Created by potrace 1.11, written by Peter Selinger 2001-2013
</metadata>
<g transform="translate(0.000000,70.000000) scale(0.100000,-0.100000)"
fill="#000000" stroke="none">
<path d="M295 673 c-27 -15 -55 -32 -63 -39 -7 -7 -40 -27 -75 -44 -108 -55
-107 -52 -107 -247 l0 -168 33 -19 c17 -10 61 -34 97 -53 36 -19 67 -39 70
-43 6 -10 100 -60 113 -60 13 0 111 50 117 60 3 4 43 28 90 53 55 29 85 51 85
62 0 10 -30 33 -85 62 -47 25 -88 50 -92 57 -6 8 -10 8 -15 0 -5 -6 -28 -22
-53 -34 l-44 -23 -46 24 c-56 29 -60 34 -60 86 0 59 6 70 56 94 43 22 44 22
85 3 23 -10 48 -25 56 -33 10 -9 17 -11 21 -4 6 9 74 49 155 91 16 8 27 21 25
29 -2 8 -41 35 -88 60 -47 25 -87 49 -90 53 -8 13 -106 60 -121 59 -8 0 -36
-12 -64 -26z"/>
</g>
</svg>
